<svg
    id="maracas_svg"
    data-name="2"
    xmlns="http://www.w3.org/2000/svg"
    viewBox="0 0 481.14 512"
>
    <defs>
    <style>
        .cls-1 {
        fill: #c73d1c;
        }
        .cls-2 {
        fill: #55b332;
        }
        .cls-3 {
        fill: #f3e100;
        }
        .cls-4 {
        fill: #f5ba32;
        }
    </style>
    </defs>
    <path
    class="cls-1"
    d="M129.31,263.77q.65,4,1.34,8.15l44.41-8.8c-.63-2.73-1.26-5.43-1.87-8.05-4.36-18.91,44.13-48.14,53.45-106.31a176.37,176.37,0,0,0,2.3-31.5L25.23,157.61a177.71,177.71,0,0,0,14.13,28.25C70.16,236.1,126.13,244.62,129.31,263.77Z"
    transform="translate(-15.43 0)"
    />
    <path
    class="cls-2"
    d="M213.49,56,16.13,95a122.82,122.82,0,0,0,1.13,34.11L225.45,87.9A123.4,123.4,0,0,0,213.49,56Z"
    transform="translate(-15.43 0)"
    />
    <path
    class="cls-3"
    d="M100.26,2A104.48,104.48,0,0,0,24.45,63.34L193.73,29.81A104.45,104.45,0,0,0,100.26,2Z"
    transform="translate(-15.43 0)"
    />
    <path
    class="cls-1"
    d="M278.06,175.76c-21.1,55,6.19,104.61-7.07,118.77-1.84,2-3.73,4-5.65,6l34,29.88c1.78-2.15,3.53-4.3,5.25-6.38,12.34-15,65.05,5.71,116.87-22.3a178.35,178.35,0,0,0,26.4-17.34l-156-137.07A176.47,176.47,0,0,0,278.06,175.76Z"
    transform="translate(-15.43 0)"
    />
    <path
    class="cls-2"
    d="M309.6,123.7,469.05,263.79a123.23,123.23,0,0,0,18.07-29L336,102.05A123,123,0,0,0,309.6,123.7Z"
    transform="translate(-15.43 0)"
    />
    <path
    class="cls-3"
    d="M461,112.18a104.44,104.44,0,0,0-94.81-22.84L495.83,203.25A104.38,104.38,0,0,0,461,112.18Z"
    transform="translate(-15.43 0)"
    />
    <path
    class="cls-4"
    d="M209.07,359.65c5.47,22.81,10.63,44.81,14.8,64,15.5-19,31.88-39.41,47.59-58.83l-36.58-32.14Z"
    transform="translate(-15.43 0)"
    />
    <path
    class="cls-4"
    d="M144.82,428.17c-12.56,13.93-22.48,25.56-28,33.34-11.88,16.8-9.79,30.89,1.4,40.74h0c11.21,9.83,25.45,10.09,40.59-3.85.43-.41.9-.85,1.36-1.3-.82-2-1.6-4-2.3-6.3C154.05,478.36,149.56,455.68,144.82,428.17Z"
    transform="translate(-15.43 0)"
    />
    <path
    class="cls-4"
    d="M185.33,306.15l-47.77,9.46C148.17,383.84,159.68,461,168,487.69c6.12,19.66,18.56,26.58,33.18,23.68h0c14.62-2.89,23.49-14,21.65-34.53C220.31,449,201.53,373.27,185.33,306.15Z"
    transform="translate(-15.43 0)"
    />
</svg>